<?xml version="1.0" encoding="UTF-8"?>
<svg width="800" height="600" viewBox="0 0 800 600" fill="none" xmlns="http://www.w3.org/2000/svg">
  <rect width="800" height="600" fill="#F3F4F6"/>
  <path d="M400 200C344.8 200 300 244.8 300 300C300 355.2 344.8 400 400 400C455.2 400 500 355.2 500 300C500 244.8 455.2 200 400 200ZM400 350C377.9 350 360 332.1 360 310C360 287.9 377.9 270 400 270C422.1 270 440 287.9 440 310C440 332.1 422.1 350 400 350Z" fill="#9CA3AF"/>
  <path d="M400 150C322.5 150 260 212.5 260 290V310C260 387.5 322.5 450 400 450C477.5 450 540 387.5 540 310V290C540 212.5 477.5 150 400 150ZM400 400C344.8 400 300 355.2 300 300V290C300 234.8 344.8 190 400 190C455.2 190 500 234.8 500 290V300C500 355.2 455.2 400 400 400Z" fill="#9CA3AF"/>
  <path d="M400 250C377.9 250 360 267.9 360 290C360 312.1 377.9 330 400 330C422.1 330 440 312.1 440 290C440 267.9 422.1 250 400 250Z" fill="#9CA3AF"/>
</svg> 